# xmcd CD database file
#
# Track frame offsets:
#	150
#	15801
#	30354
#	45574
#	59210
#	78179
#	95831
#	116790
#	137704
#	154174
#	170145
#	186513
#	199755
#
# Disc length: 2915 seconds
#
# Revision: 1
# Processed by: cddbd v1.5.2PL0 Copyright (c) Steve Scherf et al.
# Submitted via: CDex 1.70beta2
#
DISCID=b10b610d
DTITLE=Katie Melua - Piece By Piece
DYEAR=2005
DGENRE=Jazz
TTITLE0=Shy Boy
TTITLE1=Nine Million Bicycles
TTITLE2=Piece by Piece
TTITLE3=Halfway up the Hindu Kush
TTITLE4=Blues in the Night
TTITLE5=Spider's Web
TTITLE6=Blue Shoes
TTITLE7=On the Road Again
TTITLE8=Thank You, Stars
TTITLE9=Just like Heaven
TTITLE10=I Cried for You
TTITLE11=I Do Believe in Love
TTITLE12=This Is The Closest Thing To Crazy
EXTD=YEAR: 2005
EXTT0=
EXTT1=
EXTT2=
EXTT3=
EXTT4=
EXTT5=
EXTT6=
EXTT7=
EXTT8=
EXTT9=
EXTT10=
EXTT11=
EXTT12=
PLAYORDER=
